<?xml version="1.0" standalone="no"?>
<!DOCTYPE svg PUBLIC "-//W3C//DTD SVG 20010904//EN"
 "http://www.w3.org/TR/2001/REC-SVG-20010904/DTD/svg10.dtd">
<svg version="1.0" xmlns="http://www.w3.org/2000/svg"
 width="300.000000pt" height="300.000000pt" viewBox="0 0 300.000000 300.000000"
 preserveAspectRatio="xMidYMid meet">
<metadata>
Created by potrace 1.14, written by Peter Selinger 2001-2017
</metadata>
<g transform="translate(0.000000,300.000000) scale(0.100000,-0.100000)"
fill="#000000" stroke="none">
<path d="M836 2545 c-9 -14 -16 -27 -16 -30 0 -4 -7 -13 -15 -22 -8 -8 -13
-19 -10 -24 4 -5 1 -9 -4 -9 -6 0 -11 -7 -11 -15 0 -8 -5 -15 -12 -15 -6 0 -9
-3 -5 -6 3 -3 -8 -29 -25 -57 -17 -29 -34 -61 -39 -72 -5 -11 -25 -47 -45 -80
-19 -33 -38 -68 -41 -77 -3 -10 -9 -18 -13 -18 -5 0 -11 -13 -15 -30 -4 -16
-11 -30 -16 -30 -5 0 -11 -11 -15 -25 -3 -14 -10 -25 -14 -25 -5 0 -11 -14
-15 -30 -4 -18 -11 -27 -18 -23 -6 4 -8 0 -4 -10 3 -9 0 -18 -9 -21 -9 -3 -13
-10 -10 -14 3 -5 -4 -19 -15 -30 -10 -12 -20 -25 -20 -29 -3 -19 -19 -52 -29
-58 -5 -3 -8 -11 -5 -16 4 -5 1 -9 -4 -9 -6 0 -11 -6 -11 -14 0 -7 -7 -19 -15
-26 -8 -7 -13 -16 -10 -20 3 -4 -2 -13 -10 -20 -8 -7 -15 -18 -15 -24 0 -6 -9
-22 -20 -36 -11 -14 -20 -32 -20 -41 0 -9 -7 -19 -15 -23 -8 -3 -14 -9 -13
-13 3 -7 -66 -134 -146 -273 -14 -25 -31 -56 -38 -70 -7 -14 -16 -28 -21 -31
-5 -3 -9 -10 -9 -15 -3 -27 -12 -43 -22 -37 -6 3 -8 3 -4 -2 4 -4 -4 -28 -18
-52 -14 -25 -22 -48 -19 -52 4 -3 135 -6 292 -6 263 0 286 1 294 18 6 9 7 23
3 29 -5 7 -3 8 6 3 10 -6 12 -4 6 11 -4 10 -4 15 0 12 7 -8 46 61 40 71 -2 3
108 5 245 5 222 -1 252 -3 269 -19 11 -10 19 -20 18 -24 -2 -11 21 -59 31 -66
6 -3 11 -14 11 -23 0 -16 29 -17 378 -16 207 1 382 2 387 3 7 1 10 104 10 307
0 168 3 308 7 310 7 5 12 -10 9 -28 0 -5 4 -8 9 -8 5 0 9 -3 8 -7 -2 -11 24
-66 35 -74 5 -3 8 -10 8 -15 -2 -21 11 -44 21 -38 7 4 8 2 4 -4 -4 -6 4 -33
18 -60 14 -27 22 -52 19 -56 -4 -3 -1 -6 5 -6 7 0 12 -7 12 -15 0 -8 5 -15 12
-15 6 0 9 -3 5 -6 -3 -4 7 -33 24 -65 16 -33 26 -59 22 -59 -5 0 -3 -4 2 -8
14 -10 36 -50 41 -75 2 -11 9 -24 15 -27 6 -4 11 -10 11 -13 0 -4 2 -15 4 -24
5 -17 27 -18 334 -18 181 0 332 3 336 8 4 4 2 7 -5 7 -7 0 -9 5 -6 10 3 6 1
10 -5 10 -6 0 -8 5 -5 10 3 6 1 10 -5 10 -6 0 -9 4 -6 9 4 5 3 11 -1 13 -5 1
-24 35 -43 73 -19 39 -39 73 -44 76 -5 4 -6 11 -2 17 3 6 3 12 -2 14 -4 1 -28
43 -52 91 -24 49 -48 91 -52 93 -5 3 -6 10 -3 15 4 5 1 9 -4 9 -6 0 -10 3 -9
8 3 10 -73 156 -83 160 -5 2 -7 7 -4 12 3 5 -2 15 -10 24 -9 8 -16 18 -15 21
1 18 -1 25 -13 37 -15 16 -53 100 -49 111 1 4 -5 10 -13 13 -8 4 -15 15 -15
26 0 10 -4 16 -10 13 -6 -3 -7 1 -4 9 3 9 1 16 -6 16 -6 0 -9 4 -5 9 3 5 1 12
-5 16 -16 10 -12 35 13 65 12 15 33 42 47 60 14 18 31 38 38 45 6 8 12 18 12
24 0 6 9 16 20 23 11 7 20 18 20 25 0 7 5 13 11 13 5 0 7 5 4 10 -3 6 -2 10 3
10 5 0 24 21 42 48 19 26 40 51 47 55 7 4 13 12 13 17 0 10 11 24 64 86 15 19
26 34 23 34 -3 0 8 14 24 31 16 17 26 35 23 40 -3 5 0 8 7 7 6 -2 13 2 16 9 3
8 -72 11 -292 11 l-296 -1 -30 -38 c-17 -22 -28 -39 -25 -39 3 0 -2 -9 -11
-19 -33 -36 -43 -50 -43 -60 0 -5 -3 -11 -8 -13 -6 -3 -68 -89 -97 -137 -5 -9
-16 -20 -22 -24 -7 -4 -13 -13 -13 -18 0 -6 -6 -17 -12 -24 -34 -37 -43 -50
-43 -59 0 -5 -5 -11 -10 -13 -7 -2 -10 75 -10 221 l0 224 -275 -2 -275 -1 -2
-415 c-1 -490 0 -465 -19 -421 -8 18 -22 40 -30 48 -8 8 -12 18 -9 23 3 4 -2
11 -10 14 -8 3 -15 9 -14 13 3 17 -14 52 -22 47 -5 -3 -9 2 -9 11 0 19 -30 76
-45 87 -7 5 -7 8 0 8 6 0 1 7 -9 15 -11 8 -17 15 -13 15 3 0 -7 24 -24 53 -17
28 -37 69 -46 90 -9 20 -20 37 -25 37 -5 0 -6 5 -3 10 3 6 1 10 -5 10 -6 0 -8
5 -5 10 3 6 1 10 -4 10 -6 0 -11 7 -11 16 0 9 -5 12 -12 8 -7 -5 -8 -3 -3 6 4
7 4 15 -1 19 -5 3 -20 29 -34 56 -14 28 -39 74 -57 104 -18 30 -30 57 -28 61
3 5 -2 11 -11 14 -8 3 -12 10 -9 16 3 5 1 10 -4 10 -6 0 -10 6 -8 13 1 8 -16
13 -60 14 -55 1 -63 -1 -77 -22z m61 -898 c0 -7 17 -42 38 -77 21 -36 38 -71
38 -77 0 -7 4 -13 9 -13 4 0 8 -6 8 -14 0 -8 7 -22 16 -30 8 -9 13 -16 9 -16
-3 0 -1 -8 4 -19 10 -18 5 -19 -124 -19 -109 0 -135 3 -135 14 0 8 5 14 12 14
6 0 9 3 5 6 -3 3 18 54 47 114 68 138 73 145 73 117z"/>
<path d="M2135 960 c-4 -6 -16 -10 -26 -7 -11 3 -19 1 -19 -4 0 -5 -5 -9 -11
-9 -15 0 -39 -26 -32 -34 4 -3 1 -6 -5 -6 -19 0 -45 -61 -44 -107 1 -23 8 -56
17 -72 20 -39 60 -82 68 -74 4 3 7 2 7 -4 0 -9 14 -13 55 -14 11 0 37 8 57 17
35 16 43 25 39 47 -1 5 3 6 8 3 15 -10 36 45 35 89 -2 76 -4 86 -16 79 -7 -4
-8 -3 -4 5 11 17 -71 92 -91 84 -8 -3 -19 0 -23 7 -6 9 -9 9 -15 0z m39 -64
c45 -23 63 -56 60 -109 -2 -39 -9 -54 -33 -78 -40 -38 -84 -34 -123 10 -58 65
-23 164 68 191 1 0 13 -6 28 -14z"/>
<path d="M1918 951 c-15 -3 -37 -14 -48 -23 -15 -14 -20 -15 -20 -4 0 17 -30
30 -42 18 -5 -5 -10 -75 -11 -155 l-2 -145 25 5 c13 2 26 5 27 6 1 2 3 51 4
109 l1 107 40 20 c22 11 46 17 54 14 8 -3 14 -1 14 5 0 6 3 17 6 25 7 18 -13
25 -48 18z"/>
<path d="M2834 948 c-3 -4 -12 -8 -21 -8 -9 0 -22 -8 -29 -17 -13 -17 -13 -17
-14 2 0 31 -50 28 -51 -2 0 -13 0 -115 0 -228 0 -113 0 -215 0 -228 1 -17 7
-23 26 -25 l25 -2 0 115 c0 75 4 116 12 121 6 4 9 3 6 -2 -3 -5 6 -18 20 -28
16 -12 23 -14 18 -5 -5 9 -3 8 6 -2 31 -38 160 25 150 74 -1 4 3 7 8 7 14 0
12 126 -2 152 -12 19 -45 54 -73 75 -13 11 -75 11 -81 1z m67 -55 c16 -10 29
-23 29 -30 0 -7 5 -13 11 -13 6 0 9 -7 6 -15 -4 -8 -2 -17 3 -20 8 -5 7 -22
-2 -67 -2 -9 -16 -29 -31 -44 -23 -23 -33 -26 -64 -21 -54 9 -83 46 -83 106 0
52 25 95 64 111 30 12 35 12 67 -7z"/>
<path d="M1550 938 c0 -5 -6 -8 -14 -8 -7 0 -25 -11 -40 -25 -21 -20 -26 -33
-26 -75 0 -29 7 -61 16 -74 10 -16 12 -26 5 -31 -14 -8 -14 -58 -1 -71 7 -7 3
-19 -13 -37 -14 -17 -24 -43 -25 -68 -3 -34 2 -45 33 -76 22 -22 41 -33 51
-29 9 3 12 2 9 -4 -4 -7 16 -9 56 -6 37 2 65 10 70 18 5 7 9 9 9 4 0 -5 11 3
25 18 19 20 25 38 25 70 0 49 -32 101 -57 92 -8 -3 -11 -2 -8 3 7 12 -22 21
-71 22 -54 1 -74 8 -74 25 0 15 1 15 65 19 22 1 45 3 50 5 6 1 13 2 18 1 4 0
7 4 7 9 0 5 3 9 8 7 4 -1 7 0 7 3 1 3 9 15 20 27 22 26 29 77 14 105 -7 12 -7
23 -2 27 16 11 23 40 10 48 -15 9 -167 10 -167 1z m99 -74 c27 -34 26 -47 -1
-78 -22 -24 -40 -30 -81 -27 -22 1 -57 58 -50 80 20 56 97 70 132 25z m-3
-272 c42 -23 41 -86 -2 -96 -13 -4 -24 -10 -24 -15 0 -20 -118 18 -121 39 -4
30 -2 37 12 57 9 13 19 20 22 16 4 -3 7 -2 7 4 0 13 80 10 106 -5z"/>
<path d="M2365 836 c1 -115 7 -139 49 -181 23 -22 86 -39 86 -23 0 5 5 6 10 3
6 -3 10 -1 10 5 0 6 5 8 10 5 6 -3 13 1 16 9 6 17 36 23 31 7 -2 -9 2 -11 31
-11 16 0 17 12 16 143 -2 169 0 156 -21 152 -10 -2 -21 -4 -24 -4 -3 -1 -6
-46 -6 -100 -1 -108 -15 -145 -60 -157 -34 -9 -74 4 -80 26 -3 11 -9 20 -13
20 -5 0 -7 47 -5 105 2 73 -1 105 -9 106 -6 0 -18 2 -27 4 -13 2 -15 -12 -14
-109z"/>
</g>
</svg>
